# ProBuilder 5.0.3
# https://unity3d.com/unity/features/worldbuilding/probuilder
# 12/17/2021 4:04:20 PM

mtllib ./Cone.mtl
o Cone

g Cone
v -1.23227 -0.1379476 -3.548157E-17
v -0.6161349 -0.1379476 1.021009
v 0 3.057948 3.548157E-17
v 0 -0.1379476 -3.548157E-17
v 0.6161349 -0.1379476 1.021009
v 1.23227 -0.1379476 -1.192093E-07
v 0.6161348 -0.1379476 -1.021009
v -0.6161348 -0.1379476 -1.021009

vt 0 0
vt 2.35792 0
vt 1.17896 3.79257
vt -1.23227 0
vt -0.6161349 1.021009
vt 0.6161349 1.021009
vt 1.23227 -1.192093E-07
vt 0.6161348 -1.021009
vt -0.6161348 -1.021009

vn -0.9330441 0.3597621 -1.710084E-08
vn -0.4598796 0.3494564 0.8163278
vn 6.400197E-08 1 -1.440044E-07
vn 0 -1 0
vn 0.4598797 0.3494564 0.8163277
vn 0.9330441 0.3597621 -1.197059E-07
vn 0.4598795 0.3494564 -0.8163278
vn -0.4598795 0.3494564 -0.8163278

usemtl ProBuilderDefault
f 1/1/1 2/2/2 3/3/3
f 4/1/4 2/5/4 1/4/4
f 2/1/2 5/2/5 3/3/3
f 4/1/4 5/6/4 2/5/4
f 5/1/5 6/2/6 3/3/3
f 4/1/4 6/7/4 5/6/4
f 6/1/6 7/2/7 3/3/3
f 4/1/4 7/8/4 6/7/4
f 7/1/7 8/2/8 3/3/3
f 4/1/4 8/9/4 7/8/4
f 8/1/8 1/2/1 3/3/3
f 4/1/4 1/4/4 8/9/4

